<svg xmlns="http://www.w3.org/2000/svg" viewBox="0 0 100 100">
  <defs>
    <linearGradient id="chatGradient" x1="0%" y1="0%" x2="100%" y2="100%">
      <stop offset="0%" stop-color="#FF9500" />
      <stop offset="100%" stop-color="#FF2D55" />
    </linearGradient>
  </defs>
  <circle cx="50" cy="50" r="50" fill="url(#chatGradient)" />
  <path d="M25 30 C25 30 25 45 35 45 L65 45 C75 45 75 30 75 30 L25 30" fill="white" />
  <path d="M75 70 C75 70 75 55 65 55 L35 55 C25 55 25 70 25 70 L75 70" fill="white" />
  <circle cx="37" cy="37.5" r="3" fill="#FF2D55" />
  <circle cx="50" cy="37.5" r="3" fill="#FF2D55" />
  <circle cx="63" cy="37.5" r="3" fill="#FF2D55" />
  <circle cx="37" cy="62.5" r="3" fill="#FF9500" />
  <circle cx="50" cy="62.5" r="3" fill="#FF9500" />
  <circle cx="63" cy="62.5" r="3" fill="#FF9500" />
</svg> 